<svg xmlns="http://www.w3.org/2000/svg" xmlns:xlink="http://www.w3.org/1999/xlink" width="500" zoomAndPan="magnify" viewBox="0 0 375 374.999991" height="500" preserveAspectRatio="xMidYMid meet" version="1.0"><defs><clipPath id="0dee46449b"><path d="M 20 4.25 L 335 4.25 L 335 370.960938 L 20 370.960938 Z M 20 4.25 " clip-rule="nonzero"/></clipPath></defs><g clip-path="url(#0dee46449b)"><path fill="#235226" d="M 291.53125 325.457031 C 264.03125 354.125 226.996094 370.839844 182.851562 370.839844 C 139.875 370.839844 100.421875 352.949219 71.75 325.457031 C 43.074219 296.792969 26.355469 257.421875 26.355469 214.382812 C 26.355469 197.667969 28.777344 182.125 33.542969 167.828125 C 33.542969 100.964844 76.515625 67.535156 76.515625 67.535156 C 62.214844 86.667969 52.609375 115.261719 47.84375 136.816406 C 64.5625 106.976562 88.46875 79.484375 114.722656 55.65625 C 142.222656 31.753906 152.929688 22.222656 188.789062 4.335938 C 176.835938 15.113281 163.710938 24.644531 150.582031 36.59375 C 104.015625 80.65625 52.609375 133.222656 41.902344 192.902344 C 41.902344 192.902344 63.390625 178.605469 90.890625 161.890625 C 88.46875 117.679688 111.203125 114.164062 138.628906 84.25 C 133.863281 108.148438 92.0625 116.507812 101.597656 154.707031 C 113.550781 147.519531 126.675781 140.410156 138.628906 132.050781 C 182.851562 105.804688 207.929688 61.59375 207.929688 61.59375 C 193.628906 97.445312 160.191406 127.285156 142.222656 140.410156 C 139.804688 141.582031 137.457031 144 133.863281 146.347656 C 145.816406 147.519531 174.492188 151.113281 195.976562 147.519531 C 222.230469 142.753906 241.371094 137.988281 259.265625 114.089844 C 244.964844 147.519531 194.804688 161.816406 148.164062 155.878906 C 150.582031 160.644531 157.695312 170.175781 178.011719 173.769531 C 178.011719 173.769531 149.335938 173.769531 143.398438 155.878906 C 137.457031 154.707031 131.445312 153.460938 125.503906 152.285156 C 101.597656 171.421875 63.390625 200.015625 63.390625 200.015625 C 83.703125 189.238281 137.457031 196.421875 184.023438 192.828125 C 230.589844 188.0625 250.90625 164.164062 250.90625 164.164062 C 248.484375 174.941406 236.605469 180.878906 216.289062 191.65625 C 209.105469 196.421875 194.804688 198.839844 176.910156 201.1875 C 184.097656 205.953125 205.585938 214.3125 231.835938 214.3125 C 231.835938 214.3125 194.804688 220.25 164.957031 203.535156 C 145.816406 205.953125 125.578125 207.125 108.855469 208.300781 C 116.042969 213.066406 130.34375 221.421875 154.25 226.1875 C 154.25 226.1875 118.390625 223.769531 94.554688 209.472656 C 89.789062 209.472656 85.023438 209.472656 81.429688 209.472656 C 62.289062 210.644531 49.164062 219.003906 40.800781 226.1875 C 44.394531 260.792969 58.695312 291.878906 82.601562 314.535156 C 107.683594 340.78125 143.542969 356.324219 182.925781 356.324219 C 222.304688 356.324219 258.164062 340.78125 284.417969 314.535156 C 310.671875 289.460938 326.21875 253.609375 326.21875 214.238281 C 326.21875 196.347656 322.625 180.804688 315.4375 165.261719 C 309.5 149.71875 299.890625 134.25 289.183594 118.707031 C 355.992188 190.558594 341.691406 266.953125 291.53125 325.457031 Z M 139.804688 62.769531 C 149.335938 67.535156 152.929688 72.300781 152.929688 72.300781 C 152.929688 72.300781 148.164062 75.890625 137.382812 77.066406 C 121.910156 79.484375 125.503906 56.828125 139.804688 62.769531 Z M 175.664062 22.152344 C 181.605469 24.570312 182.851562 28.089844 182.851562 28.089844 C 182.851562 28.089844 180.429688 29.261719 174.492188 30.507812 C 166.128906 31.753906 168.476562 19.804688 175.664062 22.152344 Z M 163.710938 32.929688 C 168.476562 35.347656 169.652344 38.867188 169.652344 38.867188 C 169.652344 38.867188 167.230469 40.039062 162.464844 41.285156 C 152.929688 42.460938 155.351562 30.507812 163.710938 32.929688 Z M 150.582031 47.226562 C 157.769531 49.644531 160.117188 53.164062 160.117188 53.164062 C 160.117188 53.164062 156.523438 56.757812 149.335938 56.757812 C 137.457031 58.003906 141.050781 42.460938 150.582031 47.226562 Z M 135.035156 25.742188 C 136.210938 20.976562 138.628906 18.558594 138.628906 18.558594 C 138.628906 18.558594 141.050781 20.976562 142.222656 25.742188 C 144.570312 35.273438 132.691406 34.101562 135.035156 25.742188 Z M 118.316406 34.101562 C 120.738281 28.164062 123.082031 25.742188 123.082031 25.742188 C 123.082031 25.742188 126.675781 28.164062 127.851562 35.273438 C 130.269531 44.878906 115.898438 44.878906 118.316406 34.101562 Z M 98.003906 47.226562 C 100.421875 38.867188 105.191406 35.273438 105.191406 35.273438 C 105.191406 35.273438 108.78125 38.867188 111.128906 47.226562 C 113.550781 61.59375 94.410156 60.347656 98.003906 47.226562 Z M 55.03125 73.546875 C 56.203125 67.605469 57.449219 64.015625 57.449219 64.015625 C 57.449219 64.015625 61.042969 66.433594 63.390625 71.199219 C 68.15625 79.484375 55.03125 83.078125 55.03125 73.546875 Z M 41.902344 90.261719 C 40.730469 84.324219 41.902344 80.730469 41.902344 80.730469 C 41.902344 80.730469 45.496094 81.902344 49.089844 86.667969 C 55.03125 93.78125 43.074219 98.621094 41.902344 90.261719 Z M 28.777344 109.324219 C 26.355469 100.964844 28.777344 96.199219 28.777344 96.199219 C 28.777344 96.199219 33.542969 97.371094 39.554688 104.558594 C 46.667969 114.089844 29.949219 121.273438 28.777344 109.324219 Z M 20.414062 132.050781 C 19.242188 123.691406 21.589844 118.925781 21.589844 118.925781 C 21.589844 118.925781 26.355469 120.101562 32.367188 127.285156 C 40.65625 137.988281 22.761719 146.347656 20.414062 132.050781 Z M 100.421875 98.621094 C 104.015625 92.679688 107.609375 90.261719 107.609375 90.261719 C 107.609375 90.261719 110.03125 93.855469 110.03125 101.039062 C 109.957031 111.742188 95.65625 108.148438 100.421875 98.621094 Z M 117.144531 86.667969 C 118.316406 80.730469 121.910156 77.136719 121.910156 77.136719 C 121.910156 77.136719 124.328125 79.558594 126.675781 86.667969 C 130.269531 96.199219 114.722656 97.371094 117.144531 86.667969 Z M 118.316406 122.445312 C 126.675781 123.621094 130.269531 127.210938 130.269531 127.210938 C 130.269531 127.210938 127.851562 130.804688 119.488281 133.152344 C 107.535156 137.988281 106.363281 120.101562 118.316406 122.445312 Z M 136.210938 116.507812 C 139.804688 111.742188 143.398438 110.570312 143.398438 110.570312 C 143.398438 110.570312 145.816406 114.164062 144.570312 120.101562 C 143.398438 130.804688 129.097656 124.867188 136.210938 116.507812 Z M 207.929688 46.050781 C 212.699219 38.867188 217.464844 37.695312 217.464844 37.695312 C 217.464844 37.695312 219.882812 42.460938 218.636719 50.816406 C 216.289062 62.769531 199.570312 55.582031 207.929688 46.050781 Z M 193.558594 56.828125 C 194.730469 52.0625 197.152344 49.644531 197.152344 49.644531 C 197.152344 49.644531 199.570312 52.0625 200.742188 56.828125 C 203.089844 65.1875 191.210938 65.1875 193.558594 56.828125 Z M 179.257812 77.066406 C 180.429688 68.707031 182.851562 65.113281 182.851562 65.113281 C 182.851562 65.113281 186.445312 67.535156 190.039062 74.644531 C 195.976562 85.421875 179.257812 87.84375 179.257812 77.066406 Z M 162.535156 95.027344 C 163.710938 86.667969 166.128906 83.078125 166.128906 83.078125 C 166.128906 83.078125 169.722656 85.496094 173.316406 92.605469 C 179.257812 103.386719 162.535156 105.730469 162.535156 95.027344 Z M 209.105469 83.078125 C 215.042969 86.667969 216.289062 89.015625 216.289062 89.015625 C 216.289062 89.015625 213.871094 91.433594 206.757812 91.433594 C 197.152344 92.605469 200.742188 78.3125 209.105469 83.078125 Z M 198.324219 98.621094 C 205.511719 103.386719 207.859375 106.976562 207.859375 106.976562 C 207.859375 106.976562 204.265625 110.570312 195.902344 110.570312 C 182.851562 110.570312 187.617188 92.605469 198.324219 98.621094 Z M 254.496094 177.433594 C 260.4375 181.027344 261.683594 184.617188 261.683594 184.617188 C 261.683594 184.617188 259.265625 187.039062 252.152344 187.039062 C 242.542969 186.964844 246.136719 172.59375 254.496094 177.433594 Z M 242.542969 192.902344 C 248.484375 201.261719 249.730469 207.199219 249.730469 207.199219 C 249.730469 207.199219 243.792969 208.371094 234.183594 204.78125 C 218.636719 198.914062 233.011719 180.953125 242.542969 192.902344 Z M 142.222656 210.867188 C 148.164062 210.867188 151.757812 212.039062 151.757812 212.039062 C 151.757812 212.039062 150.582031 215.632812 145.816406 219.222656 C 137.457031 225.160156 132.691406 212.039062 142.222656 210.867188 Z M 201.917969 222.742188 C 203.089844 228.679688 201.917969 232.273438 201.917969 232.273438 C 201.917969 232.273438 198.324219 231.101562 193.558594 226.335938 C 187.617188 217.976562 200.742188 213.210938 201.917969 222.742188 Z M 135.035156 178.605469 C 140.976562 171.421875 146.988281 170.25 146.988281 170.25 C 146.988281 170.25 148.164062 176.1875 145.816406 184.546875 C 142.222656 198.914062 124.257812 188.136719 135.035156 178.605469 Z M 164.882812 177.433594 C 167.304688 182.199219 166.058594 184.617188 166.058594 184.617188 C 166.058594 184.617188 163.636719 184.617188 158.871094 181.027344 C 152.929688 176.1875 161.289062 169.074219 164.882812 177.433594 Z M 238.949219 159.472656 C 240.125 153.53125 243.71875 151.113281 243.71875 151.113281 C 243.71875 151.113281 246.136719 153.53125 247.3125 159.472656 C 249.730469 169.074219 236.53125 167.828125 238.949219 159.472656 Z M 205.511719 176.1875 C 207.929688 171.421875 211.449219 169.003906 211.449219 169.003906 C 211.449219 169.003906 213.871094 172.59375 213.871094 178.535156 C 212.699219 188.136719 199.570312 184.546875 205.511719 176.1875 Z M 193.558594 161.890625 C 195.976562 165.484375 195.976562 169.074219 195.976562 169.074219 C 195.976562 169.074219 193.558594 169.074219 188.789062 166.65625 C 181.605469 163.0625 189.964844 154.707031 193.558594 161.890625 Z M 230.589844 158.296875 C 235.359375 166.65625 235.359375 172.59375 235.359375 172.59375 C 235.359375 172.59375 229.417969 173.769531 219.8125 167.828125 C 205.511719 160.71875 222.230469 144 230.589844 158.296875 Z M 261.609375 128.457031 C 268.796875 129.632812 272.390625 133.222656 272.390625 133.222656 C 272.390625 133.222656 269.972656 136.816406 262.859375 139.164062 C 250.90625 144 249.730469 127.285156 261.609375 128.457031 Z M 237.777344 115.335938 C 240.199219 108.148438 244.964844 105.804688 244.964844 105.804688 C 244.964844 105.804688 247.382812 109.398438 247.382812 117.753906 C 248.484375 129.632812 231.765625 126.039062 237.777344 115.335938 Z M 160.117188 135.644531 C 163.710938 130.878906 168.476562 129.703125 168.476562 129.703125 C 168.476562 129.703125 169.652344 133.296875 168.476562 139.234375 C 167.304688 149.941406 154.175781 144 160.117188 135.644531 Z M 184.023438 132.050781 C 187.617188 122.519531 192.382812 118.925781 192.382812 118.925781 C 192.382812 118.925781 197.152344 123.691406 198.324219 133.222656 C 200.742188 148.765625 179.257812 146.347656 184.023438 132.050781 Z M 211.449219 126.039062 C 215.042969 116.507812 219.8125 112.914062 219.8125 112.914062 C 219.8125 112.914062 223.402344 117.679688 225.75 127.210938 C 228.171875 144 205.511719 141.582031 211.449219 126.039062 Z M 211.449219 126.039062 " fill-opacity="1" fill-rule="nonzero"/></g></svg>